# xmcd
#
# Track frame offsets: 
#        150
#        25115
#        44210
#        58750
#        74772
#        98997
#        119675
#        135087
#        158470
#        172590
#        196090
#
# Disc length: 2861 seconds
#
# Revision: 2
# Processed by: cddbd v1.5.2PL0 Copyright (c) Steve Scherf et al.
# Submitted via: ExactAudioCopy v1.5
#
DISCID=910b2b0b
DTITLE=Donny  Hathaway - Extension of a Man
DYEAR=1900
DGENRE=
TTITLE0=I Love The Lord, He Heard My Cry (parts I&II)
TTITLE1=Someday We'll All Be Free
TTITLE2=Flying Easy
TTITLE3=Valdez in The Country
TTITLE4=I Love You More Than You'll Ever Know
TTITLE5=Come Little Children
TTITLE6=Love, Love, Love
TTITLE7=The Slums
TTITLE8=Magdalena
TTITLE9=I Know It's You
TTITLE10=Lord Help Me
EXTD=
EXTT0=
EXTT1=
EXTT2=
EXTT3=
EXTT4=
EXTT5=
EXTT6=
EXTT7=
EXTT8=
EXTT9=
EXTT10=
PLAYORDER=
